<svg version="1.1" id="Layer_1" xmlns="http://www.w3.org/2000/svg" xmlns:xlink="http://www.w3.org/1999/xlink" x="0px" y="0px"
	 width="100%" viewBox="0 0 624 416" enable-background="new 0 0 624 416" xml:space="preserve">
<path fill="#000000" opacity="1.000000" stroke="none" 
	d="
M289.821106,310.842255 
	C286.479309,318.940552 286.729889,326.679230 290.536804,334.312042 
	C275.629578,336.130157 256.970642,324.016693 251.114990,309.304382 
	C246.582062,297.915314 247.141861,286.819336 253.765839,276.363007 
	C256.012146,272.817078 257.140869,269.237457 256.731689,265.059265 
	C255.776718,255.307449 255.229996,245.505936 253.956177,235.798264 
	C252.976929,228.335297 254.630966,222.740494 260.169586,217.026733 
	C269.413757,207.490311 277.350647,196.689789 285.879761,186.456345 
	C301.129761,168.159027 316.462402,149.930206 331.630829,131.565643 
	C334.313995,128.317154 336.829742,127.699661 340.681305,129.503784 
	C351.897888,134.757828 357.532318,144.074997 359.126740,155.691574 
	C360.756042,167.562637 366.300934,176.557999 375.791321,183.502426 
	C378.876709,185.760101 381.902618,188.158066 384.644531,190.813248 
	C389.522430,195.536896 389.283356,199.954605 384.138184,204.436523 
	C382.763550,205.633972 381.222046,206.657028 379.683441,207.645386 
	C376.961914,209.393616 376.397522,211.429260 377.032043,214.806152 
	C378.270020,221.394775 378.421631,228.048599 371.675049,232.495544 
	C369.470215,233.948853 368.795410,236.503372 368.398987,239.015472 
	C368.244293,239.996155 368.280029,241.009811 368.264130,242.009018 
	C367.973297,260.270447 357.731262,263.417358 341.292450,258.337036 
	C332.262756,255.546494 323.283081,252.625244 313.674652,249.727463 
	C313.281738,253.457016 312.871429,256.674988 312.615509,259.905243 
	C311.774109,270.523987 307.389404,279.757233 301.600250,288.462280 
	C296.981750,295.407043 293.017792,302.701263 289.821106,310.842255 
M362.430267,175.979477 
	C358.577606,170.588303 356.447021,164.587738 355.522156,158.018982 
	C354.201508,148.639297 350.609863,140.509155 342.332123,134.944183 
	C338.411316,132.308273 335.799866,132.477386 332.722198,136.387344 
	C324.713135,146.562454 316.381439,156.487930 308.036102,166.393082 
	C292.491394,184.843201 276.845612,203.208130 261.242065,221.608643 
	C258.667267,224.644974 257.056305,228.131058 257.450378,232.130600 
	C258.149811,239.229691 259.439789,246.279877 259.924713,253.388580 
	C260.589478,263.132660 261.571075,272.324097 255.969482,282.033905 
	C243.602921,303.470215 262.531494,322.271942 278.380829,329.089264 
	C282.467957,330.847260 283.844604,328.058716 283.621338,324.431488 
	C283.066498,315.416199 286.225189,307.513062 290.415192,299.781891 
	C294.846497,291.605499 300.350067,284.073914 304.281952,275.581268 
	C307.716980,268.161713 309.354248,260.446075 309.390839,252.424454 
	C309.417358,246.610474 311.120697,244.832031 316.749939,246.520538 
	C326.146851,249.339142 335.482758,252.360321 344.856842,255.255844 
	C356.403595,258.822479 363.958679,256.713318 364.227478,242.674896 
	C364.246490,241.681030 364.573547,240.687393 364.546967,239.699310 
	C364.420319,234.997131 366.025574,231.241241 370.227509,228.807251 
	C372.347687,227.579117 373.065125,226.099442 371.149292,224.024506 
	C370.076385,222.862442 369.174011,221.198929 370.859741,220.161118 
	C374.083191,218.176620 373.972107,216.066330 372.210571,213.139771 
	C371.087189,211.273468 371.664734,209.213684 373.364380,207.727295 
	C374.990570,206.305145 376.672272,204.938080 378.403442,203.645737 
	C385.497986,198.349487 385.582092,196.364792 378.761902,190.827148 
	C373.223907,186.330597 366.929657,182.685547 362.430267,175.979477 
z"/>
<path fill="#000000" opacity="1.000000" stroke="none" 
	d="
M280.903625,179.343506 
	C274.536743,179.249176 269.544250,181.356171 265.177551,185.416931 
	C258.575836,191.556107 253.009766,198.570831 247.426254,205.588791 
	C246.343948,206.949158 245.251724,209.299561 243.178238,207.735733 
	C240.979813,206.077682 243.173523,204.500290 244.218536,203.184189 
	C249.791046,196.166245 255.069870,188.886993 261.803497,182.875397 
	C267.064789,178.178268 272.972565,175.142075 280.290039,175.704926 
	C282.272552,175.857422 284.198730,176.005539 285.385468,177.928345 
	C284.346008,179.905273 282.672302,179.105606 280.903625,179.343506 
z"/>
<path fill="#000000" opacity="1.000000" stroke="none" 
	d="
M320.589630,119.556763 
	C316.194641,122.965607 313.180847,127.167267 309.875671,131.102158 
	C308.938385,132.217987 307.920776,133.897385 306.255554,132.749084 
	C304.614716,131.617569 305.620728,130.083145 306.525665,128.844589 
	C311.581268,121.925224 317.322540,115.766106 325.267029,112.071907 
	C330.612946,109.586044 337.594543,110.156288 340.663239,113.963364 
	C333.429443,114.455078 326.283569,114.155296 320.589630,119.556763 
z"/>
<path fill="#000000" opacity="1.000000" stroke="none" 
	d="
M294.752258,150.755554 
	C289.407806,154.035294 286.668579,159.700882 281.720581,163.431122 
	C279.844666,157.609085 287.423950,148.955627 297.728699,143.989075 
	C304.919434,140.523392 311.783722,140.644363 314.745850,145.127167 
	C307.460388,145.318451 300.312561,145.063721 294.752258,150.755554 
z"/>
<path fill="#000000" opacity="1.000000" stroke="none" 
	d="
M264.266907,173.869751 
	C264.946075,170.478836 267.406799,168.566467 269.316223,166.326874 
	C275.567108,158.995163 279.591705,151.154022 276.176056,141.210648 
	C275.988281,140.664017 276.151794,139.996719 276.151794,139.222717 
	C279.248596,138.947800 279.620056,141.127075 280.204315,142.904556 
	C282.247162,149.119659 281.445679,155.109619 278.292267,160.738083 
	C275.675873,165.408005 272.404236,169.625778 268.504639,173.319916 
	C267.344574,174.418884 266.237152,176.105789 264.266907,173.869751 
z"/>
<path fill="#000000" opacity="1.000000" stroke="none" 
	d="
M304.309113,121.129471 
	C304.289215,129.775391 300.135468,136.080063 294.917145,141.878586 
	C294.123413,142.760559 293.094360,143.596848 291.884308,142.729553 
	C290.644165,141.840698 291.062958,140.585571 291.847046,139.657684 
	C298.620972,131.641541 302.480225,122.864868 298.228333,111.944168 
	C302.750549,112.918739 303.152771,113.598106 304.309113,121.129471 
z"/>
<path fill="#000000" opacity="1.000000" stroke="none" 
	d="
M322.105072,107.068985 
	C321.884674,104.508698 323.781494,104.414185 325.051392,104.065132 
	C332.435547,102.035446 336.630341,97.395203 337.522064,89.721275 
	C337.686066,88.309708 337.250763,85.700012 339.870819,86.334793 
	C341.956116,86.840019 341.213226,89.005302 341.010742,90.604263 
	C339.994293,98.630058 336.319305,104.681252 328.379700,107.546082 
	C326.325562,108.287277 324.265106,108.978668 322.105072,107.068985 
z"/>
</svg>